<?xml version="1.0" standalone="no"?><svg xmlns:xlink="http://www.w3.org/1999/xlink" xmlns="http://www.w3.org/2000/svg" viewBox="0 0 1000 1000.0000000000001" preserveAspectRatio="xMaxYMax slice"><g transform="scale(2.064409578860446)"><rect x="0" y="0" width="484.4" height="484.4" fill="#ffffff"/><rect x="121.1" y="0" width="60.55" height="60.55" fill="#ffffff"/><rect x="0" y="60.55" width="60.55" height="60.55" fill="#ffffff"/><rect x="60.55" y="242.2" width="60.55" height="60.55" fill="#ffffff"/><rect x="302.75" y="363.29999999999995" width="60.55" height="60.55" fill="#ffffff"/><rect x="302.75" y="363.3" width="30.28" height="30.28" fill="#188613"/><polygon points="333.03,363.3 333.03,393.58000000000004 302.75,393.58000000000004" fill="#e7240e"/><rect x="333.03" y="393.57" width="30.28" height="30.28" fill="#f7b700"/><polygon points="363.30999999999995,393.57 363.30999999999995,423.85 333.03,423.85" fill="#188613"/><rect x="363.29999999999995" y="363.29999999999995" width="60.55" height="60.55" fill="#ffffff"/><rect x="393.57" y="363.3" width="30.28" height="30.28" fill="#00a6f2"/><polygon points="393.57,363.3 423.85,363.3 423.85,393.58000000000004" fill="#f7b700"/><rect x="393.57" y="393.57" width="30.28" height="30.28" fill="#e7240e"/><rect x="393.57" y="393.57" width="30.28" height="30.28" fill="#e7240e"/><rect x="423.84999999999997" y="363.29999999999995" width="60.55" height="60.55" fill="#ffffff"/><rect x="0" y="423.84999999999997" width="60.55" height="60.55" fill="#ffffff"/><rect x="0" y="423.85" width="30.28" height="30.28" fill="#f7b700"/><rect x="0" y="423.85" width="30.28" height="30.28" fill="#f7b700"/><rect x="0" y="454.12" width="30.28" height="30.28" fill="#188613"/><polygon points="0,454.12 30.28,454.12 30.28,484.4" fill="#e7240e"/></g></svg>